<mxfile host="app.diagrams.net" modified="2021-12-28T11:21:25.589Z" agent="5.0 (X11; Linux x86_64) AppleWebKit/537.36 (KHTML, like Gecko) Chrome/96.0.4664.45 Safari/537.36" etag="G5Hakyy5LyJKtGUJOZbo" version="16.1.0" type="github">
  <diagram name="Page-1" id="58cdce13-f638-feb5-8d6f-7d28b1aa9fa0">
    <mxGraphModel dx="1909" dy="1073" grid="1" gridSize="10" guides="1" tooltips="1" connect="1" arrows="1" fold="1" page="1" pageScale="1" pageWidth="1100" pageHeight="850" background="none" math="0" shadow="0">
      <root>
        <mxCell id="0" />
        <mxCell id="1" parent="0" />
        <mxCell id="M9PUx_98t4SMwPHc-7L_-4" style="edgeStyle=orthogonalEdgeStyle;rounded=0;orthogonalLoop=1;jettySize=auto;html=1;entryX=0;entryY=0.5;entryDx=0;entryDy=0;" parent="1" source="382b91b5511bd0f7-1" target="M9PUx_98t4SMwPHc-7L_-3" edge="1">
          <mxGeometry relative="1" as="geometry" />
        </mxCell>
        <mxCell id="382b91b5511bd0f7-1" value="" style="ellipse;html=1;shape=startState;fillColor=#000000;strokeColor=#ff0000;rounded=1;shadow=0;comic=0;labelBackgroundColor=none;fontFamily=Verdana;fontSize=12;fontColor=#000000;align=center;direction=south;" parent="1" vertex="1">
          <mxGeometry x="30" y="135" width="30" height="30" as="geometry" />
        </mxCell>
        <mxCell id="M9PUx_98t4SMwPHc-7L_-10" value="" style="edgeStyle=orthogonalEdgeStyle;rounded=0;orthogonalLoop=1;jettySize=auto;html=1;" parent="1" source="382b91b5511bd0f7-6" target="M9PUx_98t4SMwPHc-7L_-9" edge="1">
          <mxGeometry relative="1" as="geometry" />
        </mxCell>
        <mxCell id="M9PUx_98t4SMwPHc-7L_-11" value="Search bouton clicked" style="edgeLabel;html=1;align=center;verticalAlign=middle;resizable=0;points=[];" parent="M9PUx_98t4SMwPHc-7L_-10" vertex="1" connectable="0">
          <mxGeometry x="-0.0819" y="2" relative="1" as="geometry">
            <mxPoint y="-13" as="offset" />
          </mxGeometry>
        </mxCell>
        <mxCell id="M9PUx_98t4SMwPHc-7L_-13" value="" style="edgeStyle=orthogonalEdgeStyle;rounded=0;orthogonalLoop=1;jettySize=auto;html=1;" parent="1" source="382b91b5511bd0f7-6" target="M9PUx_98t4SMwPHc-7L_-12" edge="1">
          <mxGeometry relative="1" as="geometry" />
        </mxCell>
        <mxCell id="382b91b5511bd0f7-6" value="SearchCV" style="rounded=1;whiteSpace=wrap;html=1;arcSize=24;fillColor=#ffffc0;strokeColor=#ff0000;shadow=0;comic=0;labelBackgroundColor=none;fontFamily=Verdana;fontSize=12;fontColor=#000000;align=center;" parent="1" vertex="1">
          <mxGeometry x="400" y="120" width="120" height="60" as="geometry" />
        </mxCell>
        <mxCell id="M9PUx_98t4SMwPHc-7L_-2" value="Error service unavailable" style="rounded=1;whiteSpace=wrap;html=1;arcSize=24;fillColor=#ffffc0;strokeColor=#ff0000;shadow=0;comic=0;labelBackgroundColor=none;fontFamily=Verdana;fontSize=12;fontColor=#000000;align=center;" parent="1" vertex="1">
          <mxGeometry x="120" y="290" width="120" height="60" as="geometry" />
        </mxCell>
        <mxCell id="M9PUx_98t4SMwPHc-7L_-5" style="edgeStyle=orthogonalEdgeStyle;rounded=0;orthogonalLoop=1;jettySize=auto;html=1;entryX=0.5;entryY=0;entryDx=0;entryDy=0;" parent="1" source="M9PUx_98t4SMwPHc-7L_-3" target="M9PUx_98t4SMwPHc-7L_-2" edge="1">
          <mxGeometry relative="1" as="geometry" />
        </mxCell>
        <mxCell id="M9PUx_98t4SMwPHc-7L_-7" value="Error append" style="edgeLabel;html=1;align=center;verticalAlign=middle;resizable=0;points=[];" parent="M9PUx_98t4SMwPHc-7L_-5" vertex="1" connectable="0">
          <mxGeometry x="-0.3195" y="-1" relative="1" as="geometry">
            <mxPoint x="41" y="13" as="offset" />
          </mxGeometry>
        </mxCell>
        <mxCell id="M9PUx_98t4SMwPHc-7L_-6" style="edgeStyle=orthogonalEdgeStyle;rounded=0;orthogonalLoop=1;jettySize=auto;html=1;exitX=1;exitY=0.5;exitDx=0;exitDy=0;entryX=0;entryY=0.5;entryDx=0;entryDy=0;" parent="1" source="M9PUx_98t4SMwPHc-7L_-3" target="382b91b5511bd0f7-6" edge="1">
          <mxGeometry relative="1" as="geometry" />
        </mxCell>
        <mxCell id="M9PUx_98t4SMwPHc-7L_-8" value="Success" style="edgeLabel;html=1;align=center;verticalAlign=middle;resizable=0;points=[];" parent="M9PUx_98t4SMwPHc-7L_-6" vertex="1" connectable="0">
          <mxGeometry x="0.2929" y="2" relative="1" as="geometry">
            <mxPoint x="-23" y="-8" as="offset" />
          </mxGeometry>
        </mxCell>
        <mxCell id="M9PUx_98t4SMwPHc-7L_-3" value="Connecting to database" style="rounded=1;whiteSpace=wrap;html=1;arcSize=24;fillColor=#ffffc0;strokeColor=#ff0000;shadow=0;comic=0;labelBackgroundColor=none;fontFamily=Verdana;fontSize=12;fontColor=#000000;align=center;" parent="1" vertex="1">
          <mxGeometry x="120" y="120" width="120" height="60" as="geometry" />
        </mxCell>
        <mxCell id="VNybithAjD8kK-iq8rZ8-3" value="" style="edgeStyle=orthogonalEdgeStyle;rounded=0;orthogonalLoop=1;jettySize=auto;html=1;" parent="1" source="M9PUx_98t4SMwPHc-7L_-9" target="VNybithAjD8kK-iq8rZ8-2" edge="1">
          <mxGeometry relative="1" as="geometry" />
        </mxCell>
        <mxCell id="VNybithAjD8kK-iq8rZ8-4" value="Click on a CV" style="edgeLabel;html=1;align=center;verticalAlign=middle;resizable=0;points=[];" parent="VNybithAjD8kK-iq8rZ8-3" vertex="1" connectable="0">
          <mxGeometry x="0.0982" relative="1" as="geometry">
            <mxPoint x="-10" y="-10" as="offset" />
          </mxGeometry>
        </mxCell>
        <mxCell id="M9PUx_98t4SMwPHc-7L_-9" value="CV found" style="rounded=1;whiteSpace=wrap;html=1;arcSize=24;fillColor=#ffffc0;strokeColor=#ff0000;shadow=0;comic=0;labelBackgroundColor=none;fontFamily=Verdana;fontSize=12;fontColor=#000000;align=center;" parent="1" vertex="1">
          <mxGeometry x="680" y="120" width="120" height="60" as="geometry" />
        </mxCell>
        <mxCell id="M9PUx_98t4SMwPHc-7L_-15" value="" style="edgeStyle=orthogonalEdgeStyle;rounded=0;orthogonalLoop=1;jettySize=auto;html=1;" parent="1" source="M9PUx_98t4SMwPHc-7L_-12" target="M9PUx_98t4SMwPHc-7L_-14" edge="1">
          <mxGeometry relative="1" as="geometry" />
        </mxCell>
        <mxCell id="M9PUx_98t4SMwPHc-7L_-16" value="Register button clicked" style="edgeLabel;html=1;align=center;verticalAlign=middle;resizable=0;points=[];" parent="M9PUx_98t4SMwPHc-7L_-15" vertex="1" connectable="0">
          <mxGeometry x="0.101" y="3" relative="1" as="geometry">
            <mxPoint x="-13" y="-7" as="offset" />
          </mxGeometry>
        </mxCell>
        <mxCell id="M9PUx_98t4SMwPHc-7L_-19" value="" style="edgeStyle=orthogonalEdgeStyle;rounded=0;orthogonalLoop=1;jettySize=auto;html=1;" parent="1" source="M9PUx_98t4SMwPHc-7L_-12" target="M9PUx_98t4SMwPHc-7L_-18" edge="1">
          <mxGeometry relative="1" as="geometry">
            <Array as="points">
              <mxPoint x="460" y="390" />
              <mxPoint x="460" y="390" />
            </Array>
          </mxGeometry>
        </mxCell>
        <mxCell id="M9PUx_98t4SMwPHc-7L_-20" value="Login button clicked" style="edgeLabel;html=1;align=center;verticalAlign=middle;resizable=0;points=[];" parent="M9PUx_98t4SMwPHc-7L_-19" vertex="1" connectable="0">
          <mxGeometry x="0.2571" y="-1" relative="1" as="geometry">
            <mxPoint x="61" y="-10" as="offset" />
          </mxGeometry>
        </mxCell>
        <mxCell id="M9PUx_98t4SMwPHc-7L_-12" value="Account" style="rounded=1;whiteSpace=wrap;html=1;arcSize=24;fillColor=#ffffc0;strokeColor=#ff0000;shadow=0;comic=0;labelBackgroundColor=none;fontFamily=Verdana;fontSize=12;fontColor=#000000;align=center;" parent="1" vertex="1">
          <mxGeometry x="400" y="290" width="120" height="60" as="geometry" />
        </mxCell>
        <mxCell id="M9PUx_98t4SMwPHc-7L_-30" style="edgeStyle=orthogonalEdgeStyle;rounded=0;orthogonalLoop=1;jettySize=auto;html=1;entryX=0.5;entryY=0;entryDx=0;entryDy=0;" parent="1" source="M9PUx_98t4SMwPHc-7L_-14" target="M9PUx_98t4SMwPHc-7L_-21" edge="1">
          <mxGeometry relative="1" as="geometry" />
        </mxCell>
        <mxCell id="M9PUx_98t4SMwPHc-7L_-14" value="Create account" style="rounded=1;whiteSpace=wrap;html=1;arcSize=24;fillColor=#ffffc0;strokeColor=#ff0000;shadow=0;comic=0;labelBackgroundColor=none;fontFamily=Verdana;fontSize=12;fontColor=#000000;align=center;" parent="1" vertex="1">
          <mxGeometry x="680" y="290" width="120" height="60" as="geometry" />
        </mxCell>
        <mxCell id="M9PUx_98t4SMwPHc-7L_-17" value="The main page" style="text;html=1;strokeColor=none;fillColor=none;align=center;verticalAlign=middle;whiteSpace=wrap;rounded=0;" parent="1" vertex="1">
          <mxGeometry x="430" y="80" width="60" height="30" as="geometry" />
        </mxCell>
        <mxCell id="M9PUx_98t4SMwPHc-7L_-22" value="" style="edgeStyle=orthogonalEdgeStyle;rounded=0;orthogonalLoop=1;jettySize=auto;html=1;" parent="1" source="M9PUx_98t4SMwPHc-7L_-18" target="M9PUx_98t4SMwPHc-7L_-21" edge="1">
          <mxGeometry relative="1" as="geometry" />
        </mxCell>
        <mxCell id="M9PUx_98t4SMwPHc-7L_-26" value="Good credentials" style="edgeLabel;html=1;align=center;verticalAlign=middle;resizable=0;points=[];" parent="M9PUx_98t4SMwPHc-7L_-22" vertex="1" connectable="0">
          <mxGeometry x="-0.2952" y="1" relative="1" as="geometry">
            <mxPoint x="17" y="-9" as="offset" />
          </mxGeometry>
        </mxCell>
        <mxCell id="M9PUx_98t4SMwPHc-7L_-24" value="" style="edgeStyle=orthogonalEdgeStyle;rounded=0;orthogonalLoop=1;jettySize=auto;html=1;" parent="1" source="M9PUx_98t4SMwPHc-7L_-18" target="M9PUx_98t4SMwPHc-7L_-23" edge="1">
          <mxGeometry relative="1" as="geometry" />
        </mxCell>
        <mxCell id="M9PUx_98t4SMwPHc-7L_-25" value="Password lost button clicked" style="edgeLabel;html=1;align=center;verticalAlign=middle;resizable=0;points=[];" parent="M9PUx_98t4SMwPHc-7L_-24" vertex="1" connectable="0">
          <mxGeometry x="-0.2686" y="-2" relative="1" as="geometry">
            <mxPoint x="87" as="offset" />
          </mxGeometry>
        </mxCell>
        <mxCell id="M9PUx_98t4SMwPHc-7L_-18" value="Login to account" style="rounded=1;whiteSpace=wrap;html=1;arcSize=24;fillColor=#ffffc0;strokeColor=#ff0000;shadow=0;comic=0;labelBackgroundColor=none;fontFamily=Verdana;fontSize=12;fontColor=#000000;align=center;" parent="1" vertex="1">
          <mxGeometry x="400" y="430" width="120" height="60" as="geometry" />
        </mxCell>
        <mxCell id="VNybithAjD8kK-iq8rZ8-9" value="" style="edgeStyle=orthogonalEdgeStyle;rounded=0;orthogonalLoop=1;jettySize=auto;html=1;" parent="1" source="M9PUx_98t4SMwPHc-7L_-21" target="VNybithAjD8kK-iq8rZ8-8" edge="1">
          <mxGeometry relative="1" as="geometry">
            <Array as="points">
              <mxPoint x="740" y="560" />
              <mxPoint x="610" y="560" />
            </Array>
          </mxGeometry>
        </mxCell>
        <mxCell id="VNybithAjD8kK-iq8rZ8-10" value="Click on CVs" style="edgeLabel;html=1;align=center;verticalAlign=middle;resizable=0;points=[];" parent="VNybithAjD8kK-iq8rZ8-9" vertex="1" connectable="0">
          <mxGeometry x="-0.1238" y="-1" relative="1" as="geometry">
            <mxPoint x="-91" y="111" as="offset" />
          </mxGeometry>
        </mxCell>
        <mxCell id="VNybithAjD8kK-iq8rZ8-12" value="" style="edgeStyle=orthogonalEdgeStyle;rounded=0;orthogonalLoop=1;jettySize=auto;html=1;" parent="1" source="M9PUx_98t4SMwPHc-7L_-21" target="VNybithAjD8kK-iq8rZ8-11" edge="1">
          <mxGeometry relative="1" as="geometry" />
        </mxCell>
        <mxCell id="VNybithAjD8kK-iq8rZ8-13" value="Click on projects" style="edgeLabel;html=1;align=center;verticalAlign=middle;resizable=0;points=[];" parent="VNybithAjD8kK-iq8rZ8-12" vertex="1" connectable="0">
          <mxGeometry x="0.3043" y="2" relative="1" as="geometry">
            <mxPoint x="-52" y="43" as="offset" />
          </mxGeometry>
        </mxCell>
        <mxCell id="VNybithAjD8kK-iq8rZ8-30" value="" style="edgeStyle=orthogonalEdgeStyle;rounded=0;orthogonalLoop=1;jettySize=auto;html=1;" parent="1" source="M9PUx_98t4SMwPHc-7L_-21" target="VNybithAjD8kK-iq8rZ8-29" edge="1">
          <mxGeometry relative="1" as="geometry">
            <Array as="points">
              <mxPoint x="740" y="560" />
              <mxPoint x="870" y="560" />
            </Array>
          </mxGeometry>
        </mxCell>
        <mxCell id="VNybithAjD8kK-iq8rZ8-31" value="Modify account" style="edgeLabel;html=1;align=center;verticalAlign=middle;resizable=0;points=[];" parent="VNybithAjD8kK-iq8rZ8-30" vertex="1" connectable="0">
          <mxGeometry x="0.7636" y="-1" relative="1" as="geometry">
            <mxPoint x="-49" y="10" as="offset" />
          </mxGeometry>
        </mxCell>
        <mxCell id="r3mSowHxeAuPkKRKae1A-2" value="" style="edgeStyle=orthogonalEdgeStyle;rounded=0;orthogonalLoop=1;jettySize=auto;html=1;" edge="1" parent="1" source="M9PUx_98t4SMwPHc-7L_-21" target="r3mSowHxeAuPkKRKae1A-1">
          <mxGeometry relative="1" as="geometry">
            <Array as="points">
              <mxPoint x="740" y="560" />
              <mxPoint x="1000" y="560" />
            </Array>
          </mxGeometry>
        </mxCell>
        <mxCell id="r3mSowHxeAuPkKRKae1A-3" value="Educations" style="edgeLabel;html=1;align=center;verticalAlign=middle;resizable=0;points=[];" vertex="1" connectable="0" parent="r3mSowHxeAuPkKRKae1A-2">
          <mxGeometry x="0.7696" relative="1" as="geometry">
            <mxPoint x="40" y="14" as="offset" />
          </mxGeometry>
        </mxCell>
        <mxCell id="M9PUx_98t4SMwPHc-7L_-21" value="Account page" style="whiteSpace=wrap;html=1;fontFamily=Verdana;fillColor=#ffffc0;strokeColor=#ff0000;fontColor=#000000;rounded=1;arcSize=24;shadow=0;comic=0;labelBackgroundColor=none;" parent="1" vertex="1">
          <mxGeometry x="680" y="430" width="120" height="60" as="geometry" />
        </mxCell>
        <mxCell id="M9PUx_98t4SMwPHc-7L_-23" value="Password reset" style="rounded=1;whiteSpace=wrap;html=1;arcSize=24;fillColor=#ffffc0;strokeColor=#ff0000;shadow=0;comic=0;labelBackgroundColor=none;fontFamily=Verdana;fontSize=12;fontColor=#000000;align=center;" parent="1" vertex="1">
          <mxGeometry x="400" y="540" width="120" height="60" as="geometry" />
        </mxCell>
        <mxCell id="M9PUx_98t4SMwPHc-7L_-28" style="edgeStyle=orthogonalEdgeStyle;rounded=0;orthogonalLoop=1;jettySize=auto;html=1;exitX=0;exitY=0.75;exitDx=0;exitDy=0;entryX=0;entryY=0.25;entryDx=0;entryDy=0;" parent="1" source="M9PUx_98t4SMwPHc-7L_-18" target="M9PUx_98t4SMwPHc-7L_-18" edge="1">
          <mxGeometry relative="1" as="geometry">
            <Array as="points">
              <mxPoint x="370" y="475" />
              <mxPoint x="370" y="445" />
            </Array>
          </mxGeometry>
        </mxCell>
        <mxCell id="M9PUx_98t4SMwPHc-7L_-29" value="Bad credentials" style="edgeLabel;html=1;align=center;verticalAlign=middle;resizable=0;points=[];" parent="M9PUx_98t4SMwPHc-7L_-28" vertex="1" connectable="0">
          <mxGeometry x="-0.3588" y="-1" relative="1" as="geometry">
            <mxPoint x="-51" y="-14" as="offset" />
          </mxGeometry>
        </mxCell>
        <mxCell id="VNybithAjD8kK-iq8rZ8-5" style="edgeStyle=orthogonalEdgeStyle;rounded=0;orthogonalLoop=1;jettySize=auto;html=1;entryX=1;entryY=0.5;entryDx=0;entryDy=0;" parent="1" source="VNybithAjD8kK-iq8rZ8-2" target="M9PUx_98t4SMwPHc-7L_-21" edge="1">
          <mxGeometry relative="1" as="geometry">
            <Array as="points">
              <mxPoint x="970" y="460" />
            </Array>
          </mxGeometry>
        </mxCell>
        <mxCell id="VNybithAjD8kK-iq8rZ8-6" value="Click on see account" style="edgeLabel;html=1;align=center;verticalAlign=middle;resizable=0;points=[];" parent="VNybithAjD8kK-iq8rZ8-5" vertex="1" connectable="0">
          <mxGeometry x="-0.3067" y="-1" relative="1" as="geometry">
            <mxPoint x="-59" y="144" as="offset" />
          </mxGeometry>
        </mxCell>
        <mxCell id="VNybithAjD8kK-iq8rZ8-15" value="" style="edgeStyle=orthogonalEdgeStyle;rounded=0;orthogonalLoop=1;jettySize=auto;html=1;" parent="1" source="VNybithAjD8kK-iq8rZ8-2" target="VNybithAjD8kK-iq8rZ8-14" edge="1">
          <mxGeometry relative="1" as="geometry" />
        </mxCell>
        <mxCell id="VNybithAjD8kK-iq8rZ8-16" value="Click on see more &lt;br&gt;about this project" style="edgeLabel;html=1;align=center;verticalAlign=middle;resizable=0;points=[];" parent="VNybithAjD8kK-iq8rZ8-15" vertex="1" connectable="0">
          <mxGeometry x="-0.0996" y="2" relative="1" as="geometry">
            <mxPoint y="-13" as="offset" />
          </mxGeometry>
        </mxCell>
        <mxCell id="VNybithAjD8kK-iq8rZ8-2" value="CV dev C++" style="rounded=1;whiteSpace=wrap;html=1;arcSize=24;fillColor=#ffffc0;strokeColor=#ff0000;shadow=0;comic=0;labelBackgroundColor=none;fontFamily=Verdana;fontSize=12;fontColor=#000000;align=center;" parent="1" vertex="1">
          <mxGeometry x="910" y="120" width="120" height="60" as="geometry" />
        </mxCell>
        <mxCell id="VNybithAjD8kK-iq8rZ8-8" value="CVs" style="whiteSpace=wrap;html=1;fontFamily=Verdana;fillColor=#ffffc0;strokeColor=#ff0000;fontColor=#000000;rounded=1;arcSize=24;shadow=0;comic=0;labelBackgroundColor=none;" parent="1" vertex="1">
          <mxGeometry x="550" y="700" width="120" height="60" as="geometry" />
        </mxCell>
        <mxCell id="VNybithAjD8kK-iq8rZ8-11" value="Projects" style="whiteSpace=wrap;html=1;fontFamily=Verdana;fillColor=#ffffc0;strokeColor=#ff0000;fontColor=#000000;rounded=1;arcSize=24;shadow=0;comic=0;labelBackgroundColor=none;" parent="1" vertex="1">
          <mxGeometry x="680" y="700" width="120" height="60" as="geometry" />
        </mxCell>
        <mxCell id="VNybithAjD8kK-iq8rZ8-18" value="" style="edgeStyle=orthogonalEdgeStyle;rounded=0;orthogonalLoop=1;jettySize=auto;html=1;" parent="1" source="VNybithAjD8kK-iq8rZ8-14" target="VNybithAjD8kK-iq8rZ8-17" edge="1">
          <mxGeometry relative="1" as="geometry">
            <Array as="points">
              <mxPoint x="1410" y="150" />
              <mxPoint x="1410" y="50" />
            </Array>
          </mxGeometry>
        </mxCell>
        <mxCell id="VNybithAjD8kK-iq8rZ8-20" value="" style="edgeStyle=orthogonalEdgeStyle;rounded=0;orthogonalLoop=1;jettySize=auto;html=1;" parent="1" source="VNybithAjD8kK-iq8rZ8-14" target="VNybithAjD8kK-iq8rZ8-19" edge="1">
          <mxGeometry relative="1" as="geometry">
            <Array as="points">
              <mxPoint x="1340" y="150" />
              <mxPoint x="1340" y="150" />
            </Array>
          </mxGeometry>
        </mxCell>
        <mxCell id="VNybithAjD8kK-iq8rZ8-27" value="" style="edgeStyle=orthogonalEdgeStyle;rounded=0;orthogonalLoop=1;jettySize=auto;html=1;" parent="1" source="VNybithAjD8kK-iq8rZ8-14" target="VNybithAjD8kK-iq8rZ8-26" edge="1">
          <mxGeometry relative="1" as="geometry" />
        </mxCell>
        <mxCell id="VNybithAjD8kK-iq8rZ8-28" value="Click on test project" style="edgeLabel;html=1;align=center;verticalAlign=middle;resizable=0;points=[];" parent="VNybithAjD8kK-iq8rZ8-27" vertex="1" connectable="0">
          <mxGeometry x="-0.3619" relative="1" as="geometry">
            <mxPoint x="60" y="14" as="offset" />
          </mxGeometry>
        </mxCell>
        <mxCell id="VNybithAjD8kK-iq8rZ8-14" value="Project : mario kart" style="rounded=1;whiteSpace=wrap;html=1;arcSize=24;fillColor=#ffffc0;strokeColor=#ff0000;shadow=0;comic=0;labelBackgroundColor=none;fontFamily=Verdana;fontSize=12;fontColor=#000000;align=center;" parent="1" vertex="1">
          <mxGeometry x="1170" y="120" width="120" height="60" as="geometry" />
        </mxCell>
        <mxCell id="VNybithAjD8kK-iq8rZ8-17" value="GitHub page" style="rounded=1;whiteSpace=wrap;html=1;arcSize=24;fillColor=#ffffc0;strokeColor=#ff0000;shadow=0;comic=0;labelBackgroundColor=none;fontFamily=Verdana;fontSize=12;fontColor=#000000;align=center;" parent="1" vertex="1">
          <mxGeometry x="1470" y="20" width="120" height="60" as="geometry" />
        </mxCell>
        <mxCell id="VNybithAjD8kK-iq8rZ8-19" value="Kanban page" style="rounded=1;whiteSpace=wrap;html=1;arcSize=24;fillColor=#ffffc0;strokeColor=#ff0000;shadow=0;comic=0;labelBackgroundColor=none;fontFamily=Verdana;fontSize=12;fontColor=#000000;align=center;" parent="1" vertex="1">
          <mxGeometry x="1470" y="120" width="120" height="60" as="geometry" />
        </mxCell>
        <mxCell id="VNybithAjD8kK-iq8rZ8-21" value="Project website" style="rounded=1;whiteSpace=wrap;html=1;arcSize=24;fillColor=#ffffc0;strokeColor=#ff0000;shadow=0;comic=0;labelBackgroundColor=none;fontFamily=Verdana;fontSize=12;fontColor=#000000;align=center;" parent="1" vertex="1">
          <mxGeometry x="1470" y="220" width="120" height="60" as="geometry" />
        </mxCell>
        <mxCell id="VNybithAjD8kK-iq8rZ8-24" value="" style="edgeStyle=orthogonalEdgeStyle;rounded=0;orthogonalLoop=1;jettySize=auto;html=1;" parent="1" source="VNybithAjD8kK-iq8rZ8-14" target="VNybithAjD8kK-iq8rZ8-21" edge="1">
          <mxGeometry relative="1" as="geometry">
            <mxPoint x="1290" y="150" as="sourcePoint" />
            <mxPoint x="1360" y="290" as="targetPoint" />
            <Array as="points">
              <mxPoint x="1410" y="150" />
              <mxPoint x="1410" y="250" />
            </Array>
          </mxGeometry>
        </mxCell>
        <mxCell id="VNybithAjD8kK-iq8rZ8-25" value="Click on extra links" style="edgeLabel;html=1;align=center;verticalAlign=middle;resizable=0;points=[];" parent="VNybithAjD8kK-iq8rZ8-24" vertex="1" connectable="0">
          <mxGeometry x="-0.2627" y="-2" relative="1" as="geometry">
            <mxPoint x="-43" y="-17" as="offset" />
          </mxGeometry>
        </mxCell>
        <mxCell id="VNybithAjD8kK-iq8rZ8-26" value="Project demo page" style="rounded=1;whiteSpace=wrap;html=1;arcSize=24;fillColor=#ffffc0;strokeColor=#ff0000;shadow=0;comic=0;labelBackgroundColor=none;fontFamily=Verdana;fontSize=12;fontColor=#000000;align=center;" parent="1" vertex="1">
          <mxGeometry x="1170" y="260" width="120" height="60" as="geometry" />
        </mxCell>
        <mxCell id="VNybithAjD8kK-iq8rZ8-29" value="Account parameters" style="whiteSpace=wrap;html=1;fontFamily=Verdana;fillColor=#ffffc0;strokeColor=#ff0000;fontColor=#000000;rounded=1;arcSize=24;shadow=0;comic=0;labelBackgroundColor=none;" parent="1" vertex="1">
          <mxGeometry x="810" y="700" width="120" height="60" as="geometry" />
        </mxCell>
        <mxCell id="r3mSowHxeAuPkKRKae1A-1" value="Educations" style="whiteSpace=wrap;html=1;fontFamily=Verdana;fillColor=#ffffc0;strokeColor=#ff0000;fontColor=#000000;rounded=1;arcSize=24;shadow=0;comic=0;labelBackgroundColor=none;" vertex="1" parent="1">
          <mxGeometry x="940" y="700" width="120" height="60" as="geometry" />
        </mxCell>
      </root>
    </mxGraphModel>
  </diagram>
</mxfile>
